HIERARCHY
ROOT alerted
{
	OFFSET 0.000000 0.000000 0.000000
	CHANNELS 6 Xposition Yposition Zposition Xrotation Yrotation Zrotation
	JOINT Spine_01
	{
		OFFSET 0.000000 138.184219 -44.816219
		CHANNELS 3 Xrotation Yrotation Zrotation
		JOINT Spine_02
		{
			OFFSET -0.000004 -4.180267 28.050579
			CHANNELS 3 Xrotation Yrotation Zrotation
			JOINT Spine_03
			{
				OFFSET -0.000004 -2.923813 35.501564
				CHANNELS 3 Xrotation Yrotation Zrotation
				JOINT Spine_04
				{
					OFFSET -0.000006 1.220093 39.223053
					CHANNELS 3 Xrotation Yrotation Zrotation
					JOINT Neck_Base
					{
						OFFSET -0.000056 3.589035 29.437286
						CHANNELS 3 Xrotation Yrotation Zrotation
						JOINT Neck_01
						{
							OFFSET -0.075121 19.862778 2.919655
							CHANNELS 3 Xrotation Yrotation Zrotation
							JOINT Neck_02
							{
								OFFSET -0.057552 20.237839 7.676292
								CHANNELS 3 Xrotation Yrotation Zrotation
								JOINT Head
								{
									OFFSET 0.116544 20.109818 8.837181
									CHANNELS 3 Xrotation Yrotation Zrotation
									JOINT L_Ear
									{
										OFFSET 8.536811 16.227478 9.302750
										CHANNELS 3 Xrotation Yrotation Zrotation
										End Site
										{
											OFFSET 6.243855 6.432968 -14.300797
										}
									}
									JOINT R_Ear
									{
										OFFSET -7.281485 17.086838 8.818779
										CHANNELS 3 Xrotation Yrotation Zrotation
										End Site
										{
											OFFSET 4.627826 -7.023407 14.633400
										}
									}
									JOINT Jaw
									{
										OFFSET -0.487413 -4.164917 8.539513
										CHANNELS 3 Xrotation Yrotation Zrotation
										End Site
										{
											OFFSET 0.972280 16.719543 -2.095924
										}
									}
								}
							}
						}
					}
					JOINT R_Scapula
					{
						OFFSET -6.756385 17.541763 7.673988
						CHANNELS 3 Xrotation Yrotation Zrotation
						JOINT R_Shoulder
						{
							OFFSET -4.012971 -35.522552 22.005051
							CHANNELS 3 Xrotation Yrotation Zrotation
							JOINT R_Front_UpperLeg
							{
								OFFSET -3.178898 -27.349777 -18.723969
								CHANNELS 3 Xrotation Yrotation Zrotation
								JOINT R_Front_LowerLeg
								{
									OFFSET 1.576680 -39.718456 2.864098
									CHANNELS 3 Xrotation Yrotation Zrotation
									JOINT R_Front_Ankle
									{
										OFFSET 1.212198 -30.536846 2.201950
										CHANNELS 3 Xrotation Yrotation Zrotation
										JOINT R_Front_Hoof
										{
											OFFSET -0.000008 -9.177134 4.105606
											CHANNELS 3 Xrotation Yrotation Zrotation
											End Site
											{
												OFFSET 0.000017 0.000013 -10.053650
											}
										}
									}
								}
							}
						}
					}
					JOINT L_Scapula
					{
						OFFSET 6.756220 17.541611 7.674042
						CHANNELS 3 Xrotation Yrotation Zrotation
						JOINT L_Shoulder
						{
							OFFSET 2.967469 -35.658783 21.949951
							CHANNELS 3 Xrotation Yrotation Zrotation
							JOINT L_Front_UpperLeg
							{
								OFFSET 1.995463 -26.938629 -19.468475
								CHANNELS 3 Xrotation Yrotation Zrotation
								JOINT L_Front_LowerLeg
								{
									OFFSET -0.864232 -39.609890 -4.305237
									CHANNELS 3 Xrotation Yrotation Zrotation
									JOINT L_Front_Ankle
									{
										OFFSET -0.664383 -30.452950 -3.313950
										CHANNELS 3 Xrotation Yrotation Zrotation
										JOINT L_Front_Hoof
										{
											OFFSET 0.004585 -9.221642 4.004440
											CHANNELS 3 Xrotation Yrotation Zrotation
											End Site
											{
												OFFSET 0.011362 -0.110424 10.052956
											}
										}
									}
								}
							}
						}
					}
				}
			}
		}
		JOINT L_Hip
		{
			OFFSET 14.887411 -7.729401 -12.131313
			CHANNELS 3 Xrotation Yrotation Zrotation
			JOINT L_Back_UpperLeg
			{
				OFFSET 0.000002 -34.478577 8.440952
				CHANNELS 3 Xrotation Yrotation Zrotation
				JOINT L_Back_LowerLeg
				{
					OFFSET -3.196042 -42.364540 -14.576752
					CHANNELS 3 Xrotation Yrotation Zrotation
					JOINT L_Back_Ankle
					{
						OFFSET 1.655677 -33.756046 12.931885
						CHANNELS 3 Xrotation Yrotation Zrotation
						JOINT L_Back_Hoof
						{
							OFFSET 0.582796 -11.035068 3.767300
							CHANNELS 3 Xrotation Yrotation Zrotation
							End Site
							{
								OFFSET 1.784864 0.000003 11.537727
							}
						}
					}
				}
			}
		}
		JOINT R_Hip
		{
			OFFSET -14.887404 -7.729279 -12.131306
			CHANNELS 3 Xrotation Yrotation Zrotation
			JOINT R_Back_UpperLeg
			{
				OFFSET -0.000001 -35.225853 4.378204
				CHANNELS 3 Xrotation Yrotation Zrotation
				JOINT R_Back_LowerLeg
				{
					OFFSET 3.960886 -39.350452 -21.290848
					CHANNELS 3 Xrotation Yrotation Zrotation
					JOINT R_Back_Ankle
					{
						OFFSET -0.902672 -36.023087 3.312683
						CHANNELS 3 Xrotation Yrotation Zrotation
						JOINT R_Back_Hoof
						{
							OFFSET -0.767580 -11.035016 3.734024
							CHANNELS 3 Xrotation Yrotation Zrotation
							End Site
							{
								OFFSET 2.350776 -0.000010 -11.435806
							}
						}
					}
				}
			}
		}
		JOINT Tail_01
		{
			OFFSET 0.000002 9.427826 -23.815632
			CHANNELS 3 Xrotation Yrotation Zrotation
			JOINT Tail_02
			{
				OFFSET 0.000006 -10.096954 -19.648140
				CHANNELS 3 Xrotation Yrotation Zrotation
				JOINT Tail_03
				{
					OFFSET -1.564039 -22.345718 -6.591278
					CHANNELS 3 Xrotation Yrotation Zrotation
					JOINT Tail_04
					{
						OFFSET -1.985838 -23.130371 -0.674477
						CHANNELS 3 Xrotation Yrotation Zrotation
						JOINT Tail_05
						{
							OFFSET -2.096033 -23.247314 1.090141
							CHANNELS 3 Xrotation Yrotation Zrotation
							End Site
							{
								OFFSET 1.212440 -1.202248 -23.304581
							}
						}
					}
				}
			}
		}
	}
}
MOTION
Frames: 7
Frame Time: 0.033333
0.000000 0.000000 0.000000 0.000006 0.000000 -0.000000 -0.000026 -0.000000 -0.000000 0.000029 -0.000004 0.000031 -0.000026 0.000000 0.000000 -0.000003 -0.000002 -0.000053 -0.000001 -0.000000 -0.000000 -0.000020 -0.000000 -0.000000 0.000040 -0.000002 -0.000000 -0.000008 -0.000086 -0.000056 -0.000003 0.000098 0.000050 -0.000001 0.000082 0.000060 0.000014 0.000091 -0.000162 -0.000005 -0.000001 0.000005 -0.000011 -0.000001 -0.000003 0.000019 0.000001 -0.000004 -0.000001 -0.000001 0.000004 -0.000039 0.000001 0.000010 0.000021 -0.000067 0.000020 0.000003 0.000001 0.000001 0.000000 -0.000003 0.000000 -0.000025 -0.000003 0.000002 -0.000002 0.000000 -0.000002 0.000029 -0.000002 -0.000005 -0.000025 0.000066 -0.000022 0.000002 -0.000001 -0.000002 -0.000002 0.000002 0.000001 0.000016 0.000003 0.000002 0.000001 -0.000003 -0.000001 -0.000015 0.000066 -0.000020 0.000001 0.000000 0.000001 0.000020 -0.000007 -0.000002 -0.000002 -0.000000 0.000004 -0.000023 0.000004 0.000009 0.000001 -0.000068 0.000008 -0.000002 0.000002 0.000001 -0.000018 0.000004 0.000000 -0.000024 0.000002 0.000001 0.000008 -0.000001 0.000000 0.000013 0.000027 -0.000003 
0.000000 0.000000 0.000000 0.000006 0.000000 -0.000000 -0.000040 -0.000000 -0.000000 -0.000274 -0.000744 -0.000072 -0.000027 0.000000 0.000000 0.000257 -0.000020 -0.000052 0.002013 0.002478 -0.000713 -0.000278 0.001209 0.001647 -0.001596 -0.001663 0.001364 -0.002265 -0.002367 0.000974 -0.003634 0.000386 -0.004280 -0.002491 -0.006633 0.011306 0.000013 0.000090 -0.000162 0.000418 0.000603 0.000162 -0.001198 0.000134 -0.000000 0.000793 0.000204 0.000279 -0.000103 0.000094 -0.000001 -0.000070 -0.000276 -0.000407 0.000020 -0.000067 0.000020 0.000567 0.000743 0.000064 -0.001081 -0.000088 0.000007 0.000459 0.000320 0.000460 -0.000001 -0.000000 -0.000002 0.000078 -0.000318 -0.000502 -0.000025 0.000066 -0.000022 0.000000 -0.000001 -0.000002 0.000129 0.000472 -0.000507 -0.000260 0.000008 0.000050 0.000145 -0.000480 0.000446 -0.000010 0.000067 -0.000020 0.000002 0.000000 0.000001 0.000264 0.000378 -0.000352 -0.000519 0.000001 -0.000098 0.000257 -0.000395 0.000466 0.000000 -0.000069 0.000008 0.000526 0.000664 -0.000279 -0.002571 -0.000467 0.002209 -0.003347 0.000200 0.002953 -0.001026 0.000135 0.000930 0.002188 -0.000261 -0.001960 
0.000000 0.000000 0.000000 0.000006 0.000000 -0.000000 -0.000040 -0.000000 -0.000000 -0.001145 -0.002881 -0.000294 -0.000027 0.000000 0.000000 0.001022 0.002584 -0.000129 0.007872 0.005931 -0.001886 -0.001001 0.005998 0.005665 -0.006348 -0.006157 0.005271 -0.008779 -0.009004 0.003966 -0.014189 0.001952 -0.016884 -0.012817 -0.023280 0.035209 0.000013 0.000090 -0.000162 0.001979 -0.000429 0.000407 -0.004827 0.000549 0.000009 0.002900 0.000848 0.001395 -0.000104 0.000094 -0.000000 -0.000120 -0.001045 -0.001565 0.000018 -0.000067 0.000020 0.001934 0.000119 0.000010 -0.004171 -0.000332 0.000028 0.002105 0.001322 0.002073 -0.000002 -0.000000 -0.000002 0.000131 -0.001197 -0.001882 -0.000022 0.000066 -0.000022 0.000000 -0.000001 -0.000002 0.000446 0.001877 -0.001987 -0.000909 0.000018 0.000161 0.000482 -0.001895 0.001821 -0.000011 0.000067 -0.000020 0.000002 0.000000 0.000001 0.000831 0.001549 -0.001433 -0.001798 0.000014 -0.000353 0.000979 -0.001569 0.001799 0.000001 -0.000068 0.000009 0.004165 0.003721 -0.001910 -0.008372 -0.001532 0.007215 -0.013414 0.000802 0.011908 -0.006089 0.000806 0.005475 0.006697 -0.000858 -0.006017 
0.000000 0.000000 0.000000 0.000006 0.000000 -0.000000 -0.000047 -0.000000 -0.000000 -0.002522 -0.006295 -0.000644 -0.000027 0.000000 0.000000 0.002200 0.005536 -0.000008 0.017409 0.012379 -0.003991 -0.002109 0.014289 0.012006 -0.013980 -0.012727 0.011419 -0.019215 -0.019655 0.008696 -0.030979 0.005611 -0.036869 -0.029601 -0.049550 0.070736 0.000015 0.000090 -0.000162 0.004344 -0.000823 0.000684 -0.010579 0.001209 0.000022 0.006380 0.001761 0.002862 -0.000103 0.000094 -0.000001 -0.000188 -0.002223 -0.003335 0.000018 -0.000067 0.000020 0.004377 0.000390 -0.000187 -0.009437 -0.000748 0.000064 0.004784 0.002817 0.004336 -0.000002 -0.000000 -0.000002 0.000269 -0.002547 -0.003984 -0.000024 0.000066 -0.000022 0.000002 -0.000001 -0.000002 0.000800 0.004181 -0.004384 -0.001611 0.000027 0.000281 0.000822 -0.004211 0.004097 -0.000011 0.000067 -0.000020 0.000002 0.000000 0.000001 0.001546 0.003466 -0.003237 -0.003484 0.000023 -0.000688 0.001935 -0.003496 0.003936 0.000003 -0.000067 0.000008 0.013422 0.012086 -0.006163 -0.014235 -0.002623 0.012298 -0.029517 0.001769 0.026213 -0.017529 0.002319 0.015767 0.010291 -0.001335 -0.009244 
0.000000 0.000000 0.000000 0.000006 0.000000 -0.000000 -0.000054 -0.000000 -0.000000 -0.004320 -0.010814 -0.001108 -0.000026 0.000000 0.000001 0.003758 0.009458 0.000160 0.030308 0.020579 -0.006668 -0.003565 0.026255 0.020344 -0.024221 -0.020578 0.019491 -0.033192 -0.033918 0.014981 -0.053024 0.011926 -0.063379 -0.050818 -0.085365 0.117395 0.000015 0.000090 -0.000162 0.007558 -0.001366 0.001071 -0.018461 0.002111 0.000044 0.011132 0.002904 0.004709 -0.000103 0.000094 -0.000001 -0.000266 -0.003725 -0.005590 0.000020 -0.000067 0.000020 0.007742 0.000763 -0.000449 -0.016667 -0.001319 0.000112 0.008449 0.004741 0.007264 -0.000000 -0.000000 -0.000002 0.000471 -0.004274 -0.006677 -0.000024 0.000066 -0.000022 0.000000 -0.000001 -0.000002 0.001034 0.007326 -0.007619 -0.002014 0.000036 0.000350 0.000985 -0.007365 0.007266 -0.000013 0.000065 -0.000020 0.000002 0.000000 0.000001 0.002255 0.006082 -0.005750 -0.005157 0.000034 -0.001020 0.002922 -0.006121 0.006789 0.000003 -0.000068 0.000008 0.030034 0.026450 -0.013698 -0.016863 -0.003105 0.014561 -0.049906 0.002990 0.044329 -0.036768 0.004865 0.033059 0.009703 -0.001257 -0.008719 
0.000000 0.000000 0.000000 0.000006 0.000000 -0.000000 -0.000129 -0.000000 -0.000000 -0.006473 -0.016304 -0.001671 -0.000027 0.000000 0.000001 0.005619 0.014220 0.000368 0.046203 0.030012 -0.009733 -0.005331 0.042017 0.030344 -0.036804 -0.028894 0.029155 -0.050273 -0.051334 0.022559 -0.079174 0.021302 -0.095392 -0.074469 -0.130664 0.174571 0.000016 0.000090 -0.000161 0.011590 -0.002042 0.001559 -0.028302 0.003238 0.000068 0.017094 0.004201 0.006823 -0.000104 0.000094 -0.000001 -0.000400 -0.005473 -0.008219 0.000023 -0.000067 0.000020 0.011965 0.001232 -0.000787 -0.025727 -0.002036 0.000175 0.013053 0.007009 0.010682 -0.000002 -0.000000 -0.000002 0.000706 -0.006293 -0.009831 -0.000025 0.000066 -0.000022 -0.000002 -0.000001 -0.000002 0.001017 0.011245 -0.011586 -0.001777 0.000033 0.000311 0.000780 -0.011279 0.011273 -0.000012 0.000065 -0.000020 0.000002 0.000000 0.000001 0.002711 0.009340 -0.008958 -0.006410 0.000045 -0.001268 0.003708 -0.009388 0.010247 0.000003 -0.000067 0.000008 0.054825 0.048685 -0.025046 -0.013026 -0.002402 0.011260 -0.071944 0.004312 0.063923 -0.064159 0.008490 0.057688 0.001956 -0.000230 -0.001753 
0.000000 0.000000 0.000000 0.000006 0.000000 -0.000000 -0.000184 -0.000000 -0.000000 -0.008889 -0.022574 -0.002321 -0.000027 0.000000 0.000002 0.007703 0.019664 0.000592 0.064759 0.040101 -0.012988 -0.007380 0.061643 0.041642 -0.051430 -0.036847 0.040060 -0.070051 -0.071383 0.031163 -0.108186 0.033914 -0.131861 -0.098535 -0.184818 0.240676 0.000016 0.000091 -0.000161 0.016412 -0.002852 0.002142 -0.040035 0.004581 0.000099 0.024184 0.005583 0.009089 -0.000104 0.000094 -0.000001 -0.000581 -0.007388 -0.011088 0.000018 -0.000067 0.000020 0.017001 0.001788 -0.001201 -0.036577 -0.002892 0.000249 0.018543 0.009531 0.014481 -0.000001 -0.000000 -0.000002 0.001003 -0.008518 -0.013299 -0.000027 0.000129 -0.000049 0.000000 -0.000001 -0.000002 0.000577 0.015845 -0.016162 -0.000561 0.000013 0.000102 0.000008 -0.015858 0.016049 -0.000009 0.000066 -0.000020 0.000001 0.000000 0.000001 0.002769 0.013160 -0.012828 -0.006819 0.000046 -0.001350 0.004078 -0.013213 0.014196 0.000002 -0.000069 0.000008 0.087528 0.077970 -0.040035 -0.000013 0.000008 0.000002 -0.092431 0.005540 0.082138 -0.098971 0.013097 0.088990 -0.015347 0.002057 0.013809 
